<svg width="24" height="24" viewBox="0 0 24 24" fill="none" xmlns="http://www.w3.org/2000/svg">
<path d="M14 2.50006V4.80009C14 5.9202 14 6.48025 14.218 6.90807C14.4097 7.2844 14.7157 7.59036 15.092 7.7821C15.5198 8.00009 16.0799 8.00009 17.2 8.00009H19.5M9.5 14.5001L11 16.0001L15 12.0001M20 10.3138V14.0001C20 16.8003 20 18.2005 19.455 19.27C18.9757 20.2108 18.2108 20.9757 17.27 21.4551C16.2004 22.0001 14.8003 22.0001 12 22.0001V22.0001C9.19974 22.0001 7.79961 22.0001 6.73005 21.4551C5.78924 20.9757 5.02433 20.2108 4.54497 19.27C4 18.2005 4 16.8003 4 14.0001V9.77824C4 7.18703 4 5.89142 4.46859 4.88669C4.96536 3.82154 5.82147 2.96542 6.88663 2.46865C7.89136 2.00006 9.18697 2.00006 11.7782 2.00006V2.00006C12.9105 2.00006 13.4766 2.00006 14.0113 2.11861C14.5806 2.24485 15.1235 2.46971 15.6153 2.78302C16.0772 3.07727 16.4775 3.47759 17.2782 4.27823L17.6569 4.65692C18.5216 5.52167 18.954 5.95405 19.2632 6.45864C19.5373 6.906 19.7394 7.39372 19.8618 7.9039C20 8.47934 20 9.09082 20 10.3138Z" stroke="#1C1B18" stroke-width="1.5" stroke-linecap="round" stroke-linejoin="round"/>
</svg>
