<svg width="31" height="32" viewBox="0 0 31 32" fill="none" xmlns="http://www.w3.org/2000/svg">
    <path d="M27.84 21.31L26.08 18.43C25.58 17.61 25.58 16.58 26.08 15.75L27.82 12.86C28.27 12.12 28.33 11.19 27.94 10.42C27.64 9.8 27.3 9.21 26.91 8.63C26.42 7.92 25.59 7.51 24.72 7.53L21.33 7.61C20.37 7.64 19.47 7.13 19.01 6.29L17.36 3.32C16.94 2.56 16.17 2.05 15.31 1.99C14.61 1.95 13.92 1.95 13.23 2C12.91 2.02 12.61 2.11 12.33 2.24C11.85 2.47 11.45 2.86 11.18 3.34L9.59996 6.25L9.55996 6.32C9.09996 7.16 8.91995 6.8 7.95995 6.78L4.67995 6.75C4.26995 6.74 3.04995 7.69 2.68995 7.86C2.54995 8.05 2.42995 8.25 2.31995 8.45C2.13995 8.75 1.97995 9.06 1.82995 9.38C1.45995 10.15 1.51995 11.07 1.96995 11.81L3.73995 14.7C4.23995 15.52 4.23995 16.54 3.74995 17.37L1.99995 20.28C1.55995 21.02 1.49995 21.94 1.87995 22.71C2.18995 23.33 2.52995 23.93 2.91995 24.5C3.40995 25.22 4.23995 25.63 5.10995 25.61L8.50995 25.52C9.46995 25.5 10.36 26.01 10.83 26.85L12.47 29.82C12.89 30.58 13.67 31.09 14.53 31.15C15.23 31.19 15.92 31.19 16.6 31.13C16.92 31.11 17.22 31.02 17.5 30.89L19.09 27.96C19.35 27.48 19.76 27.1 20.24 26.88L20.27 26.82C20.73 25.98 21.61 25.46 22.57 25.47L25.96 25.53C26.37 25.53 26.77 25.44 27.13 25.27C27.26 25.07 27.38 24.87 27.49 24.67C27.67 24.37 27.83 24.06 27.98 23.75C28.36 22.97 28.29 22.05 27.84 21.31ZM20.57 22.48C21.71 20.99 22.34 19.1 22.25 17.08C22.08 13.14 19.21 9.97 15.48 9.27C14.86 9.12 14.23 9.08 13.57 9.1C11.79 9.18 10.17 9.81 8.85995 10.81C10.31 8.89 12.58 7.6 15.18 7.49C15.84 7.47 16.48 7.51 17.1 7.65C20.83 8.35 23.69 11.53 23.86 15.47C24 18.32 22.69 20.89 20.57 22.48Z" fill="url(#paint0_radial_712_58)"/>
    <path d="M23.8199 15.63C24.0499 20.33 20.3199 24.29 15.5699 24.33C12.7299 24.37 10.1499 22.91 8.61992 20.66C7.76992 19.49 7.25992 18.06 7.15992 16.56C6.84992 11.86 10.4599 7.86 15.1399 7.65C15.7999 7.63 16.4399 7.67 17.0599 7.81C20.7899 8.52 23.6599 11.69 23.8199 15.63V15.63Z" stroke="#1D1D1B" stroke-width="1.4" stroke-miterlimit="10" stroke-linecap="round" stroke-linejoin="round"/>
    <path d="M29.16 22.61C29.01 22.92 28.85 23.22 28.67 23.52C28.5 23.83 28.32 24.12 28.13 24.41C27.88 24.79 27.53 25.08 27.13 25.27C26.77 25.44 26.37 25.53 25.96 25.53L22.57 25.47C21.61 25.46 20.73 25.98 20.27 26.82L20.24 26.88L18.65 29.79C18.38 30.27 17.98 30.66 17.5 30.89C17.22 31.02 16.92 31.11 16.6 31.13C15.92 31.19 15.23 31.19 14.53 31.15C13.67 31.09 12.89 30.58 12.47 29.82L10.83 26.85C10.36 26.01 9.46995 25.5 8.50995 25.52L5.10995 25.61C4.23995 25.63 3.40995 25.22 2.91995 24.5C2.52995 23.93 2.18995 23.33 1.87995 22.71C1.49995 21.94 1.55995 21.02 1.99995 20.28L3.74995 17.37C4.23995 16.54 4.23995 15.52 3.73995 14.7L1.96995 11.81C1.51995 11.07 1.45995 10.15 1.82995 9.38C1.97995 9.06 2.13995 8.75 2.31995 8.45C2.42995 8.25 2.54995 8.05 2.68995 7.86C2.73995 7.77 2.79995 7.67 2.85995 7.58C3.33995 6.86 4.16995 6.45 5.02995 6.46L8.42996 6.52C8.83996 6.52 9.23996 6.43 9.59996 6.25C10.08 6.03 10.48 5.65 10.74 5.17L12.33 2.24L12.36 2.19C12.78 1.43 13.55 0.91 14.41 0.85C15.1 0.8 15.79 0.8 16.49 0.85C17.35 0.9 18.12 1.42 18.54 2.17L20.19 5.14C20.66 5.98 21.55 6.49 22.51 6.47L25.9 6.38C26.77 6.36 27.6 6.77 28.09 7.49C28.48 8.06 28.82 8.66 29.12 9.27C29.51 10.05 29.45 10.97 29 11.71L27.26 14.61C26.76 15.43 26.76 16.46 27.26 17.28L29.02 20.16C29.48 20.9 29.54 21.83 29.16 22.61V22.61Z" stroke="#1D1D1B" stroke-width="1.4" stroke-miterlimit="10" stroke-linecap="round" stroke-linejoin="round"/>
    <path d="M20.7399 13.3L15.0799 18.78L11.9299 15.53" stroke="#1D1D1B" stroke-width="1.4" stroke-miterlimit="10" stroke-linecap="round" stroke-linejoin="round"/>
    <defs>
        <radialGradient id="paint0_radial_712_58" cx="0" cy="0" r="1" gradientUnits="userSpaceOnUse" gradientTransform="translate(6.01346 31.1779) scale(25.6949 28.182)">
            <stop stop-color="#97E0C7"/>
            <stop offset="1" stop-color="#D5F3E8"/>
        </radialGradient>
    </defs>
</svg>
