<svg id="Layer_1" data-name="Layer 1" xmlns="http://www.w3.org/2000/svg" viewBox="0 0 178 27.59" width="178" height="27"><defs><style>.cls-1{fill:#eb7100;}.cls-2{fill:#003057;}</style></defs><path class="cls-1" d="M44.91,8.71h2.26v3.63h2.58a2.93,2.93,0,0,1,2.42,1A4.08,4.08,0,0,1,53,16v5.12H50.69V16.22A1.52,1.52,0,0,0,50.28,15a1.32,1.32,0,0,0-1.07-.46h-2l-.08,6.49H44.91Z"/><path class="cls-1" d="M43.27,17.77A3.27,3.27,0,0,1,42.34,20h0a3.31,3.31,0,0,1-2.41,1H34.86V18.82h5.06a1.1,1.1,0,0,0,1.1-1v0h0a1.65,1.65,0,0,0-.15-.69,1.2,1.2,0,0,0-.16-.27,2.27,2.27,0,0,0-.3-.32c-.12-.09-.24-.18-.37-.26s-.26-.15-.41-.22a10.59,10.59,0,0,0-1.16-.49l-.8-.29a5.66,5.66,0,0,1-1-.48,4.25,4.25,0,0,1-.91-.72,3.12,3.12,0,0,1-.54-.75,2.12,2.12,0,0,1-.11-.21,2.75,2.75,0,0,1-.25-1.16,2.52,2.52,0,0,1,.12-.86,3,3,0,0,1,.8-1.36,3.29,3.29,0,0,1,2.33-1h4.55V11H38.11a1.06,1.06,0,0,0-.74.32h0a.86.86,0,0,0-.27.62.67.67,0,0,0,0,.24,1.41,1.41,0,0,0,.23.35,2.07,2.07,0,0,0,.44.34,3.83,3.83,0,0,0,.61.3l.81.29c.47.17.94.37,1.4.59a6.49,6.49,0,0,1,1.19.76h0a4.91,4.91,0,0,1,.51.51.76.76,0,0,0,.09.09,3,3,0,0,1,.78,1.67A4.36,4.36,0,0,1,43.27,17.77Z"/><path class="cls-1" d="M99.18,12.59a4.57,4.57,0,0,0-1.37-.18,4.13,4.13,0,0,0-1.77.36,3.72,3.72,0,0,0-.65.36v-.52H93.13v8.46h2.26V16.65a3.43,3.43,0,0,1,.14-.71,2.71,2.71,0,0,1,.17-.39c0-.05,0-.1.08-.14a2.3,2.3,0,0,1,.28-.34,1.68,1.68,0,0,1,.29-.25,2.32,2.32,0,0,1,.41-.22l0,0a2,2,0,0,1,.64-.1,2.18,2.18,0,0,1,.62.06,1.86,1.86,0,0,1,.45.16l0-.07h0l.09-.24.66-1.76Z"/><path class="cls-1" d="M72.24,15a4.35,4.35,0,0,0-.87-1.39A4.13,4.13,0,0,0,70,12.63a3.79,3.79,0,0,0-1.52-.31H64.41V24.53h2.22V21.15h1.9a3.78,3.78,0,0,0,1.52-.3,4.2,4.2,0,0,0,1.32-.94,4.51,4.51,0,0,0,.87-1.4,5,5,0,0,0,0-3.55Zm-2.08,2.67a2,2,0,0,1-.49.68,2.28,2.28,0,0,1-.7.43,2.4,2.4,0,0,1-.84.15h-1.5V14.58h1.5a2.41,2.41,0,0,1,.84.16,2.1,2.1,0,0,1,.7.43,2.18,2.18,0,0,1,.49,2.46Z"/><path class="cls-1" d="M81.47,15a4.29,4.29,0,0,0-.87-1.39,4,4,0,0,0-1.33-.94,3.76,3.76,0,0,0-1.52-.31H73.64V24.53h2.21V21.15h1.9a3.78,3.78,0,0,0,1.52-.3,4,4,0,0,0,1.32-.94,4.36,4.36,0,0,0,.88-1.4,5.16,5.16,0,0,0,0-3.55Zm-2.08,2.67a1.94,1.94,0,0,1-.49.68,2.28,2.28,0,0,1-.7.43,2.4,2.4,0,0,1-.84.15H75.85V14.58h1.51a2.35,2.35,0,0,1,.83.16,2.25,2.25,0,0,1,.71.43,2.19,2.19,0,0,1,.49,2.46Z"/><path class="cls-1" d="M62.77,15a4.17,4.17,0,0,0-2.35-2.36,5,5,0,0,0-3.6,0,4.34,4.34,0,0,0-1.42.94A4.22,4.22,0,0,0,54.47,15a5,5,0,0,0,0,3.62A4.19,4.19,0,0,0,56.82,21a5,5,0,0,0,3.6,0,4.17,4.17,0,0,0,2.35-2.36,5,5,0,0,0,0-3.62Zm-2.08,2.78a1.9,1.9,0,0,1-.44.68,2,2,0,0,1-.68.44,2.7,2.7,0,0,1-1.9,0,1.93,1.93,0,0,1-1.12-1.12,2.81,2.81,0,0,1,0-1.94,1.93,1.93,0,0,1,1.12-1.12,2.7,2.7,0,0,1,1.9,0,2,2,0,0,1,.68.44,2.15,2.15,0,0,1,.44.68,2.81,2.81,0,0,1,0,1.94Z"/><path class="cls-2" d="M27.35,27.52h0l-9.81-6.36c.58-.59,1.16-1.15,1.74-1.7l3.19,2.08L21,17.84c.65-.58,1.31-1.13,2-1.65Z"/><path class="cls-2" d="M25.74,8.71,25.06,9a32,32,0,0,0-3.87,2H18.4L16.84,6.87,15.27,11H3.88L.41,8.72H13.52L16.84.06l3.31,8.66Z"/><path class="cls-1" d="M33.16,8.56c-1.44.6-10,3.09-21.4,16.66-.13.15-2,2.25-4.26,2.25H5.59C7.32,23,9.21,18.07,9.62,17a2.21,2.21,0,0,0-.76-2.76l-.12-.08h2.4a1.78,1.78,0,0,1,1.79,1.58v.13a2.26,2.26,0,0,1-.16.92c-.54,1.45-1.26,3.34-1.73,4.57.14-.17.34-.4.53-.59A42.94,42.94,0,0,1,25.65,10.4a21.65,21.65,0,0,1,7.06-1.87A3.4,3.4,0,0,1,33.16,8.56Z"/><path class="cls-2" d="M106.35,8.71h-1.63a1.49,1.49,0,0,0-1.39,1L99.05,21.07h2.57l.67-1.95a1.49,1.49,0,0,1,1.41-1h3.7l1,2.95H111ZM103.4,16,105,11.44,106.64,16Z"/><path class="cls-2" d="M145.68,12.61h2.57L150.36,18h.12l2.12-5.39h2.55l-3.64,8.46h-2.22Z"/><path class="cls-2" d="M136.34,12.59a4.53,4.53,0,0,0-1.37-.18,4.2,4.2,0,0,0-2.42.72v-.52h-2.26v8.46h2.26v-4.2a1.62,1.62,0,0,1,0-.22,2.49,2.49,0,0,1,.14-.71,2.66,2.66,0,0,1,.16-.39.67.67,0,0,1,.09-.14,2.24,2.24,0,0,1,.27-.34,1.68,1.68,0,0,1,.29-.25,2.32,2.32,0,0,1,.41-.22l0,0a2,2,0,0,1,.64-.1,2.14,2.14,0,0,1,.62.06,1.93,1.93,0,0,1,.46.16l0-.07h0l.09-.24.67-1.76Z"/><path class="cls-2" d="M119.57,15a4.47,4.47,0,0,0-.87-1.39,4.13,4.13,0,0,0-1.33-.94,3.79,3.79,0,0,0-1.52-.31h-4.11V24.53H114V21.15h1.89a3.78,3.78,0,0,0,1.52-.3,4.13,4.13,0,0,0,1.33-.94,4.51,4.51,0,0,0,.87-1.4A5,5,0,0,0,119.57,15Zm-2.08,2.67a2.08,2.08,0,0,1-.49.68,2.25,2.25,0,0,1-1.54.58H114V14.58h1.5a2.41,2.41,0,0,1,.84.16,2.21,2.21,0,0,1,.7.43A2.18,2.18,0,0,1,117.49,17.63Z"/><path class="cls-2" d="M128.8,15a4.32,4.32,0,0,0-.88-1.39,4,4,0,0,0-1.32-.94,3.79,3.79,0,0,0-1.52-.31H121V24.53h2.21V21.15h1.9a3.78,3.78,0,0,0,1.52-.3,4,4,0,0,0,1.32-.94,4.36,4.36,0,0,0,.88-1.4A5.16,5.16,0,0,0,128.8,15Zm-2.08,2.67a2.36,2.36,0,0,1-.49.68,2.54,2.54,0,0,1-.7.43,2.44,2.44,0,0,1-.84.15h-1.51V14.58h1.51a2.45,2.45,0,0,1,.84.16,2.32,2.32,0,0,1,.7.43A2.19,2.19,0,0,1,126.72,17.63Z"/><path class="cls-2" d="M165.73,18.43a4.51,4.51,0,0,0,.87,1.4,4.1,4.1,0,0,0,1.33.93,3.76,3.76,0,0,0,1.52.31h4.11V8.71h-2.22v3.53h-1.89a3.79,3.79,0,0,0-1.52.31,4.13,4.13,0,0,0-1.33.94,4.35,4.35,0,0,0-.87,1.39,5,5,0,0,0,0,3.55Zm2.08-2.67a2,2,0,0,1,.49-.67,2.1,2.1,0,0,1,.7-.43,2.2,2.2,0,0,1,.84-.16h1.5v4.31h-1.5a2.4,2.4,0,0,1-.84-.15,2.13,2.13,0,0,1-.7-.44A2.17,2.17,0,0,1,167.81,15.76Z"/><path class="cls-2" d="M145.22,15a4.17,4.17,0,0,0-2.35-2.36,5,5,0,0,0-3.6,0A4.17,4.17,0,0,0,136.92,15a5,5,0,0,0,0,3.62A4.17,4.17,0,0,0,139.27,21a5,5,0,0,0,3.6,0,4.17,4.17,0,0,0,2.35-2.36A5,5,0,0,0,145.22,15Zm-2.08,2.78A1.88,1.88,0,0,1,142,18.93a2.7,2.7,0,0,1-1.9,0A1.88,1.88,0,0,1,139,17.81a2.81,2.81,0,0,1,0-1.94,2,2,0,0,1,1.12-1.12,2.7,2.7,0,0,1,1.9,0,1.93,1.93,0,0,1,1.12,1.12,2.81,2.81,0,0,1,0,1.94Z"/><path class="cls-2" d="M177.59,10.1a1.28,1.28,0,1,1-1.31-1.24h0a1.25,1.25,0,0,1,1.28,1.22Zm-2.24,0a1,1,0,0,0,.93,1h0a1,1,0,0,0,1-1v0a1,1,0,0,0-1.92-.09v.08Zm.77.66h-.29V9.51a2.59,2.59,0,0,1,.48,0,.8.8,0,0,1,.43.09.36.36,0,0,1,.12.27.31.31,0,0,1-.26.29v0a.36.36,0,0,1,.23.3.85.85,0,0,0,.09.31h-.31a1.06,1.06,0,0,1-.1-.3c0-.14-.1-.2-.26-.2h-.13Zm0-.71h.13c.16,0,.29-.05.29-.18s-.08-.19-.27-.19h-.15Z"/><path class="cls-2" d="M164.15,19.06a4.83,4.83,0,0,1-1.59,1.68,4.35,4.35,0,0,1-2.43.64,4.61,4.61,0,0,1-1.8-.34A4.28,4.28,0,0,1,156,18.67a4.85,4.85,0,0,1-.34-1.81,4.53,4.53,0,0,1,.34-1.74,4.39,4.39,0,0,1,2.31-2.42,4.31,4.31,0,0,1,1.77-.36,4.5,4.5,0,0,1,1.82.34,3.77,3.77,0,0,1,1.33.93A3.89,3.89,0,0,1,164,15a5.26,5.26,0,0,1,.27,1.76V17a1.21,1.21,0,0,0,0,.19,1.23,1.23,0,0,0,0,.19h-6.39a2.27,2.27,0,0,0,.28.89,2.18,2.18,0,0,0,.54.63,2.12,2.12,0,0,0,.7.36,2.58,2.58,0,0,0,.78.11,2.17,2.17,0,0,0,1.29-.35,2.65,2.65,0,0,0,.81-.89Zm-2.07-3.29a1.2,1.2,0,0,0-.14-.5,1.79,1.79,0,0,0-.38-.52,2,2,0,0,0-.63-.4,2.42,2.42,0,0,0-.89-.16,2.11,2.11,0,0,0-1.28.42,2.21,2.21,0,0,0-.78,1.16Z"/><path class="cls-1" d="M91.42,19.06a4.71,4.71,0,0,1-1.58,1.68,4.36,4.36,0,0,1-2.44.64A4.59,4.59,0,0,1,85.61,21a4.25,4.25,0,0,1-2.37-2.37,4.66,4.66,0,0,1-.34-1.81,4.72,4.72,0,0,1,.33-1.74,4.4,4.4,0,0,1,2.32-2.42,4.28,4.28,0,0,1,1.77-.36,4.56,4.56,0,0,1,1.82.34,3.77,3.77,0,0,1,1.33.93A3.89,3.89,0,0,1,91.29,15a5.54,5.54,0,0,1,.28,1.76V17a.62.62,0,0,0,0,.19,1.23,1.23,0,0,0,0,.19H85.14a2.27,2.27,0,0,0,.28.89,2.18,2.18,0,0,0,.54.63,2.12,2.12,0,0,0,.7.36,2.58,2.58,0,0,0,.78.11A2.17,2.17,0,0,0,88.73,19a2.65,2.65,0,0,0,.81-.89Zm-2.06-3.29a1.61,1.61,0,0,0-.14-.5,1.82,1.82,0,0,0-.39-.52,1.94,1.94,0,0,0-.62-.4,2.46,2.46,0,0,0-.89-.16,2.11,2.11,0,0,0-1.28.42,2.16,2.16,0,0,0-.78,1.16Z"/></svg>